<svg xmlns="http://www.w3.org/2000/svg" viewBox="0 0 64 64" width="64" height="64">
  <defs>
    <linearGradient id="lotusGrad" x1="0" x2="1">
      <stop offset="0" stop-color="#FDE68A"/>
      <stop offset="1" stop-color="#FBCFE8"/>
    </linearGradient>
  </defs>
  <rect width="64" height="64" rx="10" fill="url(#lotusGrad)" />
  <g transform="translate(32,32)">
    <!-- Outer petals (light pink) -->
    <path d="M 0,-16 Q -6,-12 -8,-4 Q -6,0 0,-2 Q 6,0 8,-4 Q 6,-12 0,-16 Z" fill="#FCE7F3" opacity="0.9" />
    <path d="M 0,-16 Q -6,-12 -8,-4 Q -6,0 0,-2 Q 6,0 8,-4 Q 6,-12 0,-16 Z" fill="#FCE7F3" opacity="0.9" transform="rotate(60)" />
    <path d="M 0,-16 Q -6,-12 -8,-4 Q -6,0 0,-2 Q 6,0 8,-4 Q 6,-12 0,-16 Z" fill="#FCE7F3" opacity="0.9" transform="rotate(120)" />
    <path d="M 0,-16 Q -6,-12 -8,-4 Q -6,0 0,-2 Q 6,0 8,-4 Q 6,-12 0,-16 Z" fill="#FCE7F3" opacity="0.9" transform="rotate(180)" />
    <path d="M 0,-16 Q -6,-12 -8,-4 Q -6,0 0,-2 Q 6,0 8,-4 Q 6,-12 0,-16 Z" fill="#FCE7F3" opacity="0.9" transform="rotate(240)" />
    <path d="M 0,-16 Q -6,-12 -8,-4 Q -6,0 0,-2 Q 6,0 8,-4 Q 6,-12 0,-16 Z" fill="#FCE7F3" opacity="0.9" transform="rotate(300)" />
    
    <!-- Middle petals (warmer tone) -->
    <path d="M 0,-12 Q -5,-9 -6,-2 Q -3,0 0,0 Q 3,0 6,-2 Q 5,-9 0,-12 Z" fill="#FED7AA" opacity="0.95" />
    <path d="M 0,-12 Q -5,-9 -6,-2 Q -3,0 0,0 Q 3,0 6,-2 Q 5,-9 0,-12 Z" fill="#FED7AA" opacity="0.95" transform="rotate(60)" />
    <path d="M 0,-12 Q -5,-9 -6,-2 Q -3,0 0,0 Q 3,0 6,-2 Q 5,-9 0,-12 Z" fill="#FED7AA" opacity="0.95" transform="rotate(120)" />
    <path d="M 0,-12 Q -5,-9 -6,-2 Q -3,0 0,0 Q 3,0 6,-2 Q 5,-9 0,-12 Z" fill="#FED7AA" opacity="0.95" transform="rotate(180)" />
    <path d="M 0,-12 Q -5,-9 -6,-2 Q -3,0 0,0 Q 3,0 6,-2 Q 5,-9 0,-12 Z" fill="#FED7AA" opacity="0.95" transform="rotate(240)" />
    <path d="M 0,-12 Q -5,-9 -6,-2 Q -3,0 0,0 Q 3,0 6,-2 Q 5,-9 0,-12 Z" fill="#FED7AA" opacity="0.95" transform="rotate(300)" />
    
    <!-- Center stamen (dark gold) -->
    <circle r="4" fill="#D97706" opacity="0.9" />
    <circle r="3" fill="#F59E0B" opacity="0.8" />
  </g>
</svg>
